<svg width="12" height="12" viewBox="0 0 12 12" fill="none" xmlns="http://www.w3.org/2000/svg">
<path d="M3.94493 6.51437C4.22936 6.51437 4.45993 6.2838 4.45993 5.99937C4.45993 5.71495 4.22936 5.48438 3.94493 5.48438C3.6605 5.48438 3.42993 5.71495 3.42993 5.99937C3.42993 6.2838 3.6605 6.51437 3.94493 6.51437Z" fill="#808080"/>
<path d="M5.99998 6.51437C6.28441 6.51437 6.51498 6.2838 6.51498 5.99937C6.51498 5.71495 6.28441 5.48438 5.99998 5.48438C5.71556 5.48438 5.48499 5.71495 5.48499 5.99937C5.48499 6.2838 5.71556 6.51437 5.99998 6.51437Z" fill="#808080"/>
<path d="M8.05504 6.51437C8.33947 6.51437 8.57004 6.2838 8.57004 5.99937C8.57004 5.71495 8.33947 5.48438 8.05504 5.48438C7.77061 5.48438 7.54004 5.71495 7.54004 5.99937C7.54004 6.2838 7.77061 6.51437 8.05504 6.51437Z" fill="#808080"/>
<path d="M10.22 7.9H10.215C10.475 7.32 10.625 6.675 10.625 6C10.625 3.445 8.555 1.375 6 1.375C3.445 1.375 1.375 3.445 1.375 6C1.375 8.555 3.445 10.625 6 10.625C6.755 10.625 7.47 10.44 8.1 10.12L10.6 10.49L10.22 7.9Z" fill="#808080" stroke="#575389" stroke-linecap="round" stroke-linejoin="round"/>
</svg>
