<svg width="12" height="12" viewBox="0 0 12 12" fill="none" xmlns="http://www.w3.org/2000/svg">
<path d="M4.80502 7.79L8.13003 4.465C8.45503 4.14 8.45503 3.615 8.13003 3.29C7.80503 2.965 7.28003 2.965 6.95503 3.29L2.45503 7.79C1.80503 8.44 1.80503 9.49 2.45503 10.14C3.10503 10.79 4.15502 10.79 4.80502 10.14L9.29503 5.65C10.275 4.67 10.275 3.085 9.29503 2.11C8.31503 1.13 6.73003 1.13 5.75503 2.11L2.44003 5.425" fill="#808080"/>
<path d="M4.80502 7.79L8.13003 4.465C8.45503 4.14 8.45503 3.615 8.13003 3.29C7.80503 2.965 7.28003 2.965 6.95503 3.29L2.45503 7.79C1.80503 8.44 1.80503 9.49 2.45503 10.14C3.10503 10.79 4.15502 10.79 4.80502 10.14L9.29503 5.65C10.275 4.67 10.275 3.085 9.29503 2.11C8.31503 1.13 6.73003 1.13 5.75503 2.11L2.44003 5.425" stroke="#575389" stroke-linecap="round" stroke-linejoin="round"/>
</svg>
