<svg width="23" height="23" viewBox="0 0 23 23" fill="none" xmlns="http://www.w3.org/2000/svg">
<path d="M10.0261 15.7261H4.22852" stroke="#1A202C" stroke-width="1.65625" stroke-linecap="round" stroke-linejoin="round"/>
<path d="M12.6119 6.80808H18.4095" stroke="#1A202C" stroke-width="1.65625" stroke-linecap="round" stroke-linejoin="round"/>
<path fill-rule="evenodd" clip-rule="evenodd" d="M8.55014 6.75849C8.55014 5.56631 7.57648 4.59961 6.37571 4.59961C5.17495 4.59961 4.20129 5.56631 4.20129 6.75849C4.20129 7.95067 5.17495 8.91737 6.37571 8.91737C7.57648 8.91737 8.55014 7.95067 8.55014 6.75849Z" stroke="#1A202C" stroke-width="1.65625" stroke-linecap="round" stroke-linejoin="round"/>
<path fill-rule="evenodd" clip-rule="evenodd" d="M18.9235 15.6901C18.9235 14.4979 17.9506 13.5312 16.7499 13.5312C15.5484 13.5312 14.5747 14.4979 14.5747 15.6901C14.5747 16.8823 15.5484 17.849 16.7499 17.849C17.9506 17.849 18.9235 16.8823 18.9235 15.6901Z" stroke="#1A202C" stroke-width="1.65625" stroke-linecap="round" stroke-linejoin="round"/>
</svg>
