<svg width="64" height="64" viewBox="0 0 64 64" fill="none" xmlns="http://www.w3.org/2000/svg">
<rect x="0.792762" y="0.792762" width="62.4145" height="62.4145" rx="31.2072" fill="#FAFAFA"/>
<rect x="0.792762" y="0.792762" width="62.4145" height="62.4145" rx="31.2072" stroke="#EEEEEE" stroke-width="1.58552"/>
<g clip-path="url(#clip0_305_6340)">
<path d="M27.148 17.0532C23.9507 18.1624 21.1933 20.2676 19.281 23.0597C17.3686 25.8518 16.402 29.1836 16.5231 32.5656C16.6442 35.9477 17.8467 39.2018 19.9539 41.8499C22.0611 44.498 24.962 46.4006 28.2305 47.2782C30.8803 47.962 33.6565 47.992 36.3205 47.3657C38.7338 46.8237 40.9649 45.6641 42.7955 44.0007C44.7007 42.2166 46.0836 39.9469 46.7955 37.4357C47.569 34.7049 47.7067 31.8331 47.198 29.0407H32.318V35.2132H40.9355C40.7632 36.1977 40.3942 37.1373 39.8504 37.9758C39.3065 38.8143 38.5991 39.5345 37.7705 40.0932C36.7183 40.7896 35.532 41.2579 34.288 41.4682C33.0403 41.7003 31.7606 41.7003 30.513 41.4682C29.2484 41.2071 28.0521 40.6851 27.0005 39.9357C25.3108 38.7397 24.0422 37.0405 23.3755 35.0807C22.6977 33.0842 22.6977 30.9198 23.3755 28.9232C23.85 27.5238 24.6346 26.2496 25.6705 25.1957C26.856 23.9676 28.3568 23.0897 30.0084 22.6584C31.6599 22.2271 33.3984 22.2591 35.033 22.7507C36.31 23.1425 37.4777 23.8274 38.443 24.7507C39.4146 23.7841 40.3846 22.8149 41.353 21.8432C41.853 21.3207 42.398 20.8232 42.8905 20.2882C41.4168 18.917 39.6871 17.85 37.8005 17.1482C34.3647 15.9007 30.6054 15.8672 27.148 17.0532Z" fill="white"/>
<path d="M27.1474 17.0525C30.6046 15.8656 34.3639 15.8983 37.7999 17.145C39.6869 17.8515 41.4158 18.9237 42.8874 20.3C42.3874 20.835 41.8599 21.335 41.3499 21.855C40.3799 22.8233 39.4108 23.7883 38.4424 24.75C37.4772 23.8267 36.3094 23.1418 35.0324 22.75C33.3984 22.2566 31.66 22.2228 30.008 22.6523C28.356 23.0819 26.8542 23.9581 25.6674 25.185C24.6315 26.2388 23.847 27.513 23.3724 28.9125L18.1899 24.9C20.045 21.2214 23.2568 18.4075 27.1474 17.0525Z" fill="#E33629"/>
<path d="M16.8151 28.8754C17.0935 27.4948 17.5559 26.1579 18.1901 24.9004L23.3726 28.9229C22.6948 30.9194 22.6948 33.0838 23.3726 35.0804C21.646 36.4137 19.9185 37.7537 18.1901 39.1004C16.603 35.9412 16.119 32.3416 16.8151 28.8754Z" fill="#FFB546"/>
<path d="M32.3175 29.0371H47.1975C47.7062 31.8295 47.5686 34.7012 46.795 37.4321C46.0831 39.9433 44.7002 42.213 42.795 43.9971C41.1225 42.6921 39.4425 41.3971 37.77 40.0921C38.5992 39.5328 39.3069 38.8118 39.8508 37.9724C40.3946 37.133 40.7634 36.1925 40.935 35.2071H32.3175C32.315 33.1521 32.3175 31.0946 32.3175 29.0371Z" fill="#587DBD"/>
<path d="M18.1875 39.1001C19.9158 37.7667 21.6433 36.4267 23.37 35.0801C24.038 37.0406 25.3085 38.7398 27 39.9351C28.0549 40.681 29.2537 41.1987 30.52 41.4551C31.7676 41.6871 33.0474 41.6871 34.295 41.4551C35.5391 41.2448 36.7253 40.7764 37.7775 40.0801C39.45 41.3851 41.13 42.6801 42.8025 43.9851C40.9722 45.6494 38.7411 46.8098 36.3275 47.3526C33.6635 47.9788 30.8873 47.9488 28.2375 47.2651C26.1418 46.7055 24.1842 45.7191 22.4875 44.3676C20.6918 42.9416 19.2251 41.1449 18.1875 39.1001Z" fill="#319F43"/>
</g>
<defs>
<clipPath id="clip0_305_6340">
<rect x="16" y="16" width="32" height="32" rx="15" fill="white"/>
</clipPath>
</defs>
</svg>
