<svg width="157" height="38" viewBox="0 0 157 38" fill="none" xmlns="http://www.w3.org/2000/svg">
<path d="M24.3233 7.89327V21.8618C24.3233 24.9382 23.5438 27.2247 21.9848 28.7213C20.4258 30.218 18.1601 30.9663 15.1876 30.9663C13.6078 30.9663 12.1112 30.7688 10.6977 30.3739C9.30501 29.9789 8.13058 29.4073 7.1744 28.659L9.10754 25.1668C9.81428 25.7489 10.6769 26.2062 11.6955 26.5388C12.714 26.8713 13.7429 27.0376 14.7823 27.0376C16.4036 27.0376 17.5884 26.6635 18.3367 25.9152C19.0851 25.1668 19.4592 24.0236 19.4592 22.4854V21.9242C18.8356 22.5477 18.0977 23.0258 17.2455 23.3584C16.3932 23.691 15.4786 23.8573 14.5016 23.8573C12.2983 23.8573 10.5522 23.2337 9.26344 21.9865C7.97468 20.7185 7.3303 18.827 7.3303 16.3118V7.89327H12.1943V15.5947C12.1943 18.3177 13.3272 19.6792 15.5929 19.6792C16.757 19.6792 17.6924 19.3051 18.3991 18.5567C19.1058 17.7876 19.4592 16.6548 19.4592 15.1581V7.89327H24.3233ZM36.8115 24.9174C35.0446 24.9174 33.4545 24.5536 32.041 23.8261C30.6483 23.0778 29.557 22.0489 28.7671 20.7393C27.9772 19.4298 27.5823 17.9435 27.5823 16.2806C27.5823 14.6177 27.9772 13.1315 28.7671 11.8219C29.557 10.5124 30.6483 9.49383 32.041 8.7663C33.4545 8.01799 35.0446 7.64383 36.8115 7.64383C38.5783 7.64383 40.1581 8.01799 41.5508 8.7663C42.9435 9.49383 44.0348 10.5124 44.8247 11.8219C45.6146 13.1315 46.0095 14.6177 46.0095 16.2806C46.0095 17.9435 45.6146 19.4298 44.8247 20.7393C44.0348 22.0489 42.9435 23.0778 41.5508 23.8261C40.1581 24.5536 38.5783 24.9174 36.8115 24.9174ZM36.8115 20.9264C38.0587 20.9264 39.0772 20.5107 39.8671 19.6792C40.6778 18.827 41.0831 17.6941 41.0831 16.2806C41.0831 14.8671 40.6778 13.7447 39.8671 12.9132C39.0772 12.061 38.0587 11.6348 36.8115 11.6348C35.5643 11.6348 34.5354 12.061 33.7247 12.9132C32.914 13.7447 32.5087 14.8671 32.5087 16.2806C32.5087 17.6941 32.914 18.827 33.7247 19.6792C34.5354 20.5107 35.5643 20.9264 36.8115 20.9264ZM66.1601 7.89327V24.668H61.5455V22.6725C60.9011 23.4 60.132 23.9612 59.2382 24.3562C58.3444 24.7303 57.3778 24.9174 56.3385 24.9174C54.1351 24.9174 52.3891 24.2834 51.1003 23.0154C49.8116 21.7475 49.1672 19.8663 49.1672 17.3719V7.89327H54.0312V16.6548C54.0312 19.357 55.1641 20.7081 57.4298 20.7081C58.5938 20.7081 59.5292 20.334 60.236 19.5857C60.9427 18.8166 61.2961 17.6837 61.2961 16.1871V7.89327H66.1601ZM92.1492 7.64383C94.2486 7.64383 95.9115 8.26742 97.1379 9.51461C98.3851 10.741 99.0087 12.591 99.0087 15.0646V24.668H94.1447V15.8129C94.1447 14.4826 93.8641 13.4952 93.3028 12.8508C92.7624 12.1857 91.9829 11.8531 90.9643 11.8531C89.8211 11.8531 88.9169 12.2273 88.2517 12.9756C87.5865 13.7031 87.254 14.7944 87.254 16.2494V24.668H82.3899V15.8129C82.3899 13.173 81.3298 11.8531 79.2096 11.8531C78.0871 11.8531 77.1933 12.2273 76.5281 12.9756C75.863 13.7031 75.5304 14.7944 75.5304 16.2494V24.668H70.6663V7.89327H75.3121V9.82641C75.9357 9.11967 76.6944 8.57922 77.5882 8.20507C78.5028 7.83091 79.5006 7.64383 80.5815 7.64383C81.7663 7.64383 82.8368 7.88287 83.793 8.36096C84.7492 8.81827 85.5183 9.49383 86.1003 10.3876C86.7863 9.51461 87.6489 8.83905 88.6882 8.36096C89.7483 7.88287 90.902 7.64383 92.1492 7.64383ZM109.386 24.9174C107.495 24.9174 106.019 24.4185 104.959 23.4208C103.899 22.4022 103.369 20.968 103.369 19.118V1.5326H108.233V18.8374C108.233 19.5441 108.409 20.0949 108.763 20.4899C109.137 20.864 109.656 21.0511 110.322 21.0511C110.571 21.0511 110.82 21.0199 111.07 20.9576C111.34 20.8952 111.548 20.8225 111.694 20.7393L111.912 24.5121C111.101 24.7823 110.259 24.9174 109.386 24.9174ZM131.019 7.89327V24.668H126.374V22.7348C125.168 24.1899 123.422 24.9174 121.135 24.9174C119.556 24.9174 118.121 24.564 116.833 23.8573C115.565 23.1506 114.567 22.1424 113.839 20.8329C113.112 19.5233 112.748 18.0059 112.748 16.2806C112.748 14.5553 113.112 13.0379 113.839 11.7284C114.567 10.4188 115.565 9.41068 116.833 8.70394C118.121 7.9972 119.556 7.64383 121.135 7.64383C123.276 7.64383 124.95 8.31939 126.155 9.67051V7.89327H131.019ZM121.977 20.9264C123.204 20.9264 124.222 20.5107 125.033 19.6792C125.844 18.827 126.249 17.6941 126.249 16.2806C126.249 14.8671 125.844 13.7447 125.033 12.9132C124.222 12.061 123.204 11.6348 121.977 11.6348C120.73 11.6348 119.701 12.061 118.89 12.9132C118.08 13.7447 117.674 14.8671 117.674 16.2806C117.674 17.6941 118.08 18.827 118.89 19.6792C119.701 20.5107 120.73 20.9264 121.977 20.9264ZM146.186 24.668L142.507 19.5233L138.703 24.668H133.402L139.857 16.2183L133.621 7.89327H139.077L142.632 12.7885L146.28 7.89327H151.455L145.22 16.0935L151.705 24.668H146.186Z" fill="#262626"/>
<path d="M35.9947 29.8252C36.5248 29.8252 36.9971 29.9407 37.4117 30.1718C37.833 30.4028 38.1627 30.7291 38.4005 31.1504C38.6384 31.5718 38.7573 32.0577 38.7573 32.6082C38.7573 33.1587 38.6384 33.648 38.4005 34.0762C38.1627 34.4975 37.833 34.8238 37.4117 35.0548C36.9971 35.2859 36.5248 35.4014 35.9947 35.4014C35.2607 35.4014 34.6796 35.1568 34.2515 34.6675V37.3078H32.9772V29.8863H34.1903V30.5999C34.401 30.3417 34.6592 30.148 34.9651 30.0189C35.2777 29.8897 35.6209 29.8252 35.9947 29.8252ZM35.852 34.3107C36.3209 34.3107 36.7049 34.1543 37.0039 33.8417C37.3097 33.5291 37.4627 33.1179 37.4627 32.6082C37.4627 32.0985 37.3097 31.6873 37.0039 31.3747C36.7049 31.0621 36.3209 30.9058 35.852 30.9058C35.5461 30.9058 35.2709 30.9771 35.0262 31.1198C34.7816 31.2558 34.5879 31.4529 34.4451 31.7111C34.3024 31.9694 34.2311 32.2684 34.2311 32.6082C34.2311 32.948 34.3024 33.247 34.4451 33.5053C34.5879 33.7636 34.7816 33.964 35.0262 34.1068C35.2709 34.2427 35.5461 34.3107 35.852 34.3107ZM42.5552 34.3208C43.1464 34.3208 43.6392 34.1238 44.0333 33.7296L44.7062 34.5145C44.4683 34.8068 44.1625 35.0276 43.7887 35.1772C43.4149 35.3267 42.9935 35.4014 42.5246 35.4014C41.9265 35.4014 41.3998 35.2825 40.9445 35.0446C40.4891 34.8068 40.1357 34.4772 39.8843 34.0558C39.6396 33.6276 39.5173 33.1451 39.5173 32.6082C39.5173 32.0781 39.6362 31.6024 39.8741 31.181C40.1187 30.7528 40.4518 30.4198 40.8731 30.182C41.3013 29.9441 41.7838 29.8252 42.3207 29.8252C42.8304 29.8252 43.2926 29.9373 43.7071 30.1616C44.1285 30.3791 44.4615 30.6951 44.7062 31.1096C44.9508 31.5174 45.0732 31.9965 45.0732 32.547L40.9037 33.3626C41.0328 33.6752 41.2401 33.9131 41.5256 34.0762C41.811 34.2393 42.1542 34.3208 42.5552 34.3208ZM42.3207 30.8446C41.8518 30.8446 41.4712 30.9975 41.1789 31.3033C40.8935 31.6092 40.7508 32.0203 40.7508 32.5368V32.547L43.8295 31.9558C43.7411 31.6228 43.561 31.3543 43.2892 31.1504C43.0241 30.9465 42.7013 30.8446 42.3207 30.8446ZM48.8868 34.3208C49.478 34.3208 49.9708 34.1238 50.3649 33.7296L51.0378 34.5145C50.7999 34.8068 50.4941 35.0276 50.1203 35.1772C49.7465 35.3267 49.3251 35.4014 48.8562 35.4014C48.2581 35.4014 47.7314 35.2825 47.2761 35.0446C46.8207 34.8068 46.4673 34.4772 46.2159 34.0558C45.9712 33.6276 45.8489 33.1451 45.8489 32.6082C45.8489 32.0781 45.9678 31.6024 46.2057 31.181C46.4503 30.7528 46.7834 30.4198 47.2047 30.182C47.6329 29.9441 48.1154 29.8252 48.6523 29.8252C49.162 29.8252 49.6242 29.9373 50.0387 30.1616C50.4601 30.3791 50.7931 30.6951 51.0378 31.1096C51.2824 31.5174 51.4048 31.9965 51.4048 32.547L47.2353 33.3626C47.3644 33.6752 47.5717 33.9131 47.8572 34.0762C48.1426 34.2393 48.4858 34.3208 48.8868 34.3208ZM48.6523 30.8446C48.1834 30.8446 47.8028 30.9975 47.5106 31.3033C47.2251 31.6092 47.0824 32.0203 47.0824 32.5368V32.547L50.1611 31.9558C50.0727 31.6228 49.8926 31.3543 49.6208 31.1504C49.3557 30.9465 49.0329 30.8446 48.6523 30.8446ZM53.8422 30.6815C54.2091 30.1106 54.8548 29.8252 55.7791 29.8252V31.0383C55.6703 31.0179 55.5718 31.0077 55.4834 31.0077C54.9873 31.0077 54.5999 31.1538 54.3213 31.4461C54.0426 31.7315 53.9033 32.1461 53.9033 32.6898V35.3301H52.629V29.8863H53.8422V30.6815ZM62.7855 35.0344C62.636 35.1568 62.4525 35.2485 62.235 35.3097C62.0243 35.3709 61.8 35.4014 61.5622 35.4014C60.9641 35.4014 60.502 35.2451 60.1757 34.9325C59.8495 34.6199 59.6864 34.1645 59.6864 33.5665V28.6834H60.9607V29.9271H62.4185V30.9465H60.9607V33.5359C60.9607 33.8009 61.0253 34.0048 61.1544 34.1475C61.2903 34.2835 61.4772 34.3514 61.7151 34.3514C62.0005 34.3514 62.2384 34.2767 62.4287 34.1272L62.7855 35.0344ZM66.1062 35.4014C65.5557 35.4014 65.0596 35.2825 64.6178 35.0446C64.1761 34.8068 63.8295 34.4772 63.578 34.0558C63.3333 33.6276 63.211 33.1451 63.211 32.6082C63.211 32.0713 63.3333 31.5922 63.578 31.1708C63.8295 30.7494 64.1761 30.4198 64.6178 30.182C65.0596 29.9441 65.5557 29.8252 66.1062 29.8252C66.6635 29.8252 67.163 29.9441 67.6047 30.182C68.0465 30.4198 68.3897 30.7494 68.6344 31.1708C68.8858 31.5922 69.0116 32.0713 69.0116 32.6082C69.0116 33.1451 68.8858 33.6276 68.6344 34.0558C68.3897 34.4772 68.0465 34.8068 67.6047 35.0446C67.163 35.2825 66.6635 35.4014 66.1062 35.4014ZM66.1062 34.3107C66.5751 34.3107 66.9625 34.1543 67.2683 33.8417C67.5742 33.5291 67.7271 33.1179 67.7271 32.6082C67.7271 32.0985 67.5742 31.6873 67.2683 31.3747C66.9625 31.0621 66.5751 30.9058 66.1062 30.9058C65.6373 30.9058 65.2499 31.0621 64.944 31.3747C64.645 31.6873 64.4955 32.0985 64.4955 32.6082C64.4955 33.1179 64.645 33.5291 64.944 33.8417C65.2499 34.1543 65.6373 34.3107 66.1062 34.3107ZM76.065 29.8252C76.5951 29.8252 77.0674 29.9407 77.482 30.1718C77.9033 30.4028 78.2329 30.7291 78.4708 31.1504C78.7087 31.5718 78.8276 32.0577 78.8276 32.6082C78.8276 33.1587 78.7087 33.648 78.4708 34.0762C78.2329 34.4975 77.9033 34.8238 77.482 35.0548C77.0674 35.2859 76.5951 35.4014 76.065 35.4014C75.331 35.4014 74.7499 35.1568 74.3217 34.6675V37.3078H73.0475V29.8863H74.2606V30.5999C74.4713 30.3417 74.7295 30.148 75.0353 30.0189C75.348 29.8897 75.6912 29.8252 76.065 29.8252ZM75.9222 34.3107C76.3912 34.3107 76.7752 34.1543 77.0742 33.8417C77.38 33.5291 77.5329 33.1179 77.5329 32.6082C77.5329 32.0985 77.38 31.6873 77.0742 31.3747C76.7752 31.0621 76.3912 30.9058 75.9222 30.9058C75.6164 30.9058 75.3412 30.9771 75.0965 31.1198C74.8518 31.2558 74.6582 31.4529 74.5154 31.7111C74.3727 31.9694 74.3014 32.2684 74.3014 32.6082C74.3014 32.948 74.3727 33.247 74.5154 33.5053C74.6582 33.7636 74.8518 33.964 75.0965 34.1068C75.3412 34.2427 75.6164 34.3107 75.9222 34.3107ZM82.6255 34.3208C83.2167 34.3208 83.7094 34.1238 84.1036 33.7296L84.7765 34.5145C84.5386 34.8068 84.2328 35.0276 83.859 35.1772C83.4852 35.3267 83.0638 35.4014 82.5949 35.4014C81.9968 35.4014 81.4701 35.2825 81.0148 35.0446C80.5594 34.8068 80.206 34.4772 79.9546 34.0558C79.7099 33.6276 79.5876 33.1451 79.5876 32.6082C79.5876 32.0781 79.7065 31.6024 79.9444 31.181C80.189 30.7528 80.522 30.4198 80.9434 30.182C81.3716 29.9441 81.8541 29.8252 82.391 29.8252C82.9007 29.8252 83.3628 29.9373 83.7774 30.1616C84.1988 30.3791 84.5318 30.6951 84.7765 31.1096C85.0211 31.5174 85.1434 31.9965 85.1434 32.547L80.974 33.3626C81.1031 33.6752 81.3104 33.9131 81.5958 34.0762C81.8813 34.2393 82.2245 34.3208 82.6255 34.3208ZM82.391 30.8446C81.9221 30.8446 81.5415 30.9975 81.2492 31.3033C80.9638 31.6092 80.8211 32.0203 80.8211 32.5368V32.547L83.8997 31.9558C83.8114 31.6228 83.6313 31.3543 83.3594 31.1504C83.0944 30.9465 82.7716 30.8446 82.391 30.8446ZM88.9571 34.3208C89.5483 34.3208 90.041 34.1238 90.4352 33.7296L91.1081 34.5145C90.8702 34.8068 90.5644 35.0276 90.1906 35.1772C89.8168 35.3267 89.3954 35.4014 88.9265 35.4014C88.3284 35.4014 87.8017 35.2825 87.3464 35.0446C86.891 34.8068 86.5376 34.4772 86.2862 34.0558C86.0415 33.6276 85.9192 33.1451 85.9192 32.6082C85.9192 32.0781 86.0381 31.6024 86.276 31.181C86.5206 30.7528 86.8536 30.4198 87.275 30.182C87.7032 29.9441 88.1857 29.8252 88.7226 29.8252C89.2323 29.8252 89.6944 29.9373 90.109 30.1616C90.5304 30.3791 90.8634 30.6951 91.1081 31.1096C91.3527 31.5174 91.475 31.9965 91.475 32.547L87.3056 33.3626C87.4347 33.6752 87.642 33.9131 87.9274 34.0762C88.2129 34.2393 88.5561 34.3208 88.9571 34.3208ZM88.7226 30.8446C88.2537 30.8446 87.8731 30.9975 87.5808 31.3033C87.2954 31.6092 87.1527 32.0203 87.1527 32.5368V32.547L90.2313 31.9558C90.143 31.6228 89.9629 31.3543 89.691 31.1504C89.426 30.9465 89.1032 30.8446 88.7226 30.8446ZM93.9124 30.6815C94.2794 30.1106 94.9251 29.8252 95.8493 29.8252V31.0383C95.7406 31.0179 95.6421 31.0077 95.5537 31.0077C95.0576 31.0077 94.6702 31.1538 94.3916 31.4461C94.1129 31.7315 93.9736 32.1461 93.9736 32.6898V35.3301H92.6993V29.8863H93.9124V30.6815ZM102.387 34.3208C102.978 34.3208 103.471 34.1238 103.865 33.7296L104.538 34.5145C104.3 34.8068 103.994 35.0276 103.62 35.1772C103.247 35.3267 102.825 35.4014 102.356 35.4014C101.758 35.4014 101.231 35.2825 100.776 35.0446C100.321 34.8068 99.9674 34.4772 99.7159 34.0558C99.4713 33.6276 99.3489 33.1451 99.3489 32.6082C99.3489 32.0781 99.4679 31.6024 99.7057 31.181C99.9504 30.7528 100.283 30.4198 100.705 30.182C101.133 29.9441 101.615 29.8252 102.152 29.8252C102.662 29.8252 103.124 29.9373 103.539 30.1616C103.96 30.3791 104.293 30.6951 104.538 31.1096C104.782 31.5174 104.905 31.9965 104.905 32.547L100.735 33.3626C100.864 33.6752 101.072 33.9131 101.357 34.0762C101.643 34.2393 101.986 34.3208 102.387 34.3208ZM102.152 30.8446C101.683 30.8446 101.303 30.9975 101.011 31.3033C100.725 31.6092 100.582 32.0203 100.582 32.5368V32.547L103.661 31.9558C103.573 31.6228 103.393 31.3543 103.121 31.1504C102.856 30.9465 102.533 30.8446 102.152 30.8446ZM111.461 27.7659V35.3301H110.237V34.6267C110.027 34.8849 109.765 35.0786 109.452 35.2077C109.147 35.3369 108.807 35.4014 108.433 35.4014C107.91 35.4014 107.437 35.2859 107.016 35.0548C106.601 34.8238 106.275 34.4975 106.037 34.0762C105.799 33.648 105.681 33.1587 105.681 32.6082C105.681 32.0577 105.799 31.5718 106.037 31.1504C106.275 30.7291 106.601 30.4028 107.016 30.1718C107.437 29.9407 107.91 29.8252 108.433 29.8252C108.793 29.8252 109.123 29.8863 109.422 30.0087C109.721 30.131 109.976 30.3145 110.186 30.5592V27.7659H111.461ZM108.586 34.3107C108.892 34.3107 109.167 34.2427 109.412 34.1068C109.656 33.964 109.85 33.7636 109.993 33.5053C110.135 33.247 110.207 32.948 110.207 32.6082C110.207 32.2684 110.135 31.9694 109.993 31.7111C109.85 31.4529 109.656 31.2558 109.412 31.1198C109.167 30.9771 108.892 30.9058 108.586 30.9058C108.28 30.9058 108.005 30.9771 107.76 31.1198C107.516 31.2558 107.322 31.4529 107.179 31.7111C107.036 31.9694 106.965 32.2684 106.965 32.6082C106.965 32.948 107.036 33.247 107.179 33.5053C107.322 33.7636 107.516 33.964 107.76 34.1068C108.005 34.2427 108.28 34.3107 108.586 34.3107ZM118.398 29.8863V35.3301H117.185V34.6369C116.981 34.8815 116.726 35.0718 116.42 35.2077C116.115 35.3369 115.785 35.4014 115.432 35.4014C114.704 35.4014 114.13 35.201 113.709 34.8C113.294 34.3922 113.087 33.7907 113.087 32.9956V29.8863H114.361V32.8223C114.361 33.3116 114.47 33.6786 114.687 33.9233C114.912 34.1611 115.228 34.2801 115.635 34.2801C116.091 34.2801 116.451 34.1407 116.716 33.8621C116.988 33.5767 117.124 33.1689 117.124 32.6388V29.8863H118.398ZM122.564 35.4014C122 35.4014 121.494 35.2825 121.045 35.0446C120.597 34.8068 120.247 34.4772 119.995 34.0558C119.744 33.6276 119.618 33.1451 119.618 32.6082C119.618 32.0713 119.744 31.5922 119.995 31.1708C120.247 30.7494 120.593 30.4198 121.035 30.182C121.484 29.9441 121.993 29.8252 122.564 29.8252C123.101 29.8252 123.57 29.9339 123.971 30.1514C124.379 30.3689 124.685 30.6815 124.888 31.0893L123.91 31.6601C123.753 31.4087 123.556 31.2218 123.319 31.0995C123.087 30.9703 122.833 30.9058 122.554 30.9058C122.078 30.9058 121.684 31.0621 121.371 31.3747C121.059 31.6805 120.902 32.0917 120.902 32.6082C120.902 33.1247 121.055 33.5393 121.361 33.8519C121.674 34.1577 122.071 34.3107 122.554 34.3107C122.833 34.3107 123.087 34.2495 123.319 34.1272C123.556 33.998 123.753 33.8077 123.91 33.5563L124.888 34.1272C124.678 34.5349 124.369 34.8509 123.961 35.0752C123.56 35.2927 123.094 35.4014 122.564 35.4014ZM131.232 29.8863V35.3301H130.019V34.6267C129.808 34.8849 129.546 35.0786 129.234 35.2077C128.928 35.3369 128.588 35.4014 128.214 35.4014C127.684 35.4014 127.208 35.2859 126.787 35.0548C126.373 34.8238 126.046 34.4975 125.808 34.0762C125.577 33.6548 125.462 33.1655 125.462 32.6082C125.462 32.0509 125.577 31.565 125.808 31.1504C126.046 30.7291 126.373 30.4028 126.787 30.1718C127.208 29.9407 127.684 29.8252 128.214 29.8252C128.568 29.8252 128.89 29.8863 129.183 30.0087C129.482 30.131 129.74 30.3111 129.957 30.549V29.8863H131.232ZM128.357 34.3107C128.826 34.3107 129.213 34.1543 129.519 33.8417C129.825 33.5291 129.978 33.1179 129.978 32.6082C129.978 32.0985 129.825 31.6873 129.519 31.3747C129.213 31.0621 128.826 30.9058 128.357 30.9058C127.888 30.9058 127.501 31.0621 127.195 31.3747C126.896 31.6873 126.746 32.0985 126.746 32.6082C126.746 33.1179 126.896 33.5291 127.195 33.8417C127.501 34.1543 127.888 34.3107 128.357 34.3107ZM135.957 35.0344C135.808 35.1568 135.624 35.2485 135.407 35.3097C135.196 35.3709 134.972 35.4014 134.734 35.4014C134.136 35.4014 133.674 35.2451 133.348 34.9325C133.021 34.6199 132.858 34.1645 132.858 33.5665V28.6834H134.133V29.9271H135.59V30.9465H134.133V33.5359C134.133 33.8009 134.197 34.0048 134.326 34.1475C134.462 34.2835 134.649 34.3514 134.887 34.3514C135.172 34.3514 135.41 34.2767 135.601 34.1272L135.957 35.0344ZM137.011 29.8863H138.285V35.3301H137.011V29.8863ZM137.653 28.9892C137.422 28.9892 137.228 28.9179 137.072 28.7752C136.915 28.6256 136.837 28.4421 136.837 28.2247C136.837 28.0072 136.915 27.8271 137.072 27.6844C137.228 27.5349 137.422 27.4601 137.653 27.4601C137.884 27.4601 138.078 27.5315 138.234 27.6742C138.39 27.8101 138.468 27.9834 138.468 28.1941C138.468 28.4184 138.39 28.6087 138.234 28.765C138.084 28.9145 137.891 28.9892 137.653 28.9892ZM142.404 35.4014C141.853 35.4014 141.357 35.2825 140.916 35.0446C140.474 34.8068 140.127 34.4772 139.876 34.0558C139.631 33.6276 139.509 33.1451 139.509 32.6082C139.509 32.0713 139.631 31.5922 139.876 31.1708C140.127 30.7494 140.474 30.4198 140.916 30.182C141.357 29.9441 141.853 29.8252 142.404 29.8252C142.961 29.8252 143.461 29.9441 143.903 30.182C144.344 30.4198 144.688 30.7494 144.932 31.1708C145.184 31.5922 145.309 32.0713 145.309 32.6082C145.309 33.1451 145.184 33.6276 144.932 34.0558C144.688 34.4772 144.344 34.8068 143.903 35.0446C143.461 35.2825 142.961 35.4014 142.404 35.4014ZM142.404 34.3107C142.873 34.3107 143.26 34.1543 143.566 33.8417C143.872 33.5291 144.025 33.1179 144.025 32.6082C144.025 32.0985 143.872 31.6873 143.566 31.3747C143.26 31.0621 142.873 30.9058 142.404 30.9058C141.935 30.9058 141.548 31.0621 141.242 31.3747C140.943 31.6873 140.793 32.0985 140.793 32.6082C140.793 33.1179 140.943 33.5291 141.242 33.8417C141.548 34.1543 141.935 34.3107 142.404 34.3107ZM149.617 29.8252C150.303 29.8252 150.854 30.0257 151.268 30.4266C151.683 30.8276 151.89 31.4223 151.89 32.2106V35.3301H150.616V32.3737C150.616 31.898 150.504 31.5412 150.279 31.3033C150.055 31.0587 149.736 30.9363 149.321 30.9363C148.852 30.9363 148.482 31.0791 148.21 31.3645C147.938 31.6431 147.802 32.0475 147.802 32.5776V35.3301H146.528V29.8863H147.741V30.5897C147.952 30.3383 148.217 30.148 148.536 30.0189C148.856 29.8897 149.216 29.8252 149.617 29.8252Z" fill="#262626"/>
</svg>
