<svg width="20" height="21" viewBox="0 0 20 21" fill="none" xmlns="http://www.w3.org/2000/svg">
<path d="M9.99984 8.83268C11.8408 8.83268 13.3332 7.3403 13.3332 5.49935C13.3332 3.6584 11.8408 2.16602 9.99984 2.16602C8.15889 2.16602 6.6665 3.6584 6.6665 5.49935C6.6665 7.3403 8.15889 8.83268 9.99984 8.83268Z" stroke="currentColor" stroke-width="1.5"/>
<path d="M16.6649 15.4987C16.6666 15.362 16.6666 15.2229 16.6666 15.082C16.6666 13.0112 13.6816 11.332 9.99992 11.332C6.31825 11.332 3.33325 13.0112 3.33325 15.082C3.33325 17.1529 3.33325 18.832 9.99992 18.832C11.8591 18.832 13.1999 18.7012 14.1666 18.4679" stroke="currentColor" stroke-width="1.5" stroke-linecap="round"/>
</svg>
