<svg width="16" height="16" viewBox="0 0 16 16" fill="none" xmlns="http://www.w3.org/2000/svg">
<g clip-path="url(#clip0_678_357)">
<path d="M2.99992 14.6673V11.334M2.99992 4.66732V1.33398M1.33325 3.00065H4.66659M1.33325 13.0007H4.66659M8.66658 2.00065L7.51047 5.00656C7.32246 5.49538 7.22845 5.73979 7.08227 5.94537C6.95271 6.12758 6.79352 6.28678 6.61131 6.41634C6.40572 6.56252 6.16131 6.65652 5.67249 6.84453L2.66659 8.00065L5.67249 9.15677C6.16131 9.34478 6.40572 9.43878 6.61131 9.58496C6.79352 9.71452 6.95271 9.87372 7.08227 10.0559C7.22846 10.2615 7.32246 10.5059 7.51047 10.9947L8.66659 14.0007L9.8227 10.9947C10.0107 10.5059 10.1047 10.2615 10.2509 10.0559C10.3805 9.87372 10.5397 9.71452 10.7219 9.58496C10.9274 9.43878 11.1719 9.34478 11.6607 9.15677L14.6666 8.00065L11.6607 6.84453C11.1719 6.65652 10.9274 6.56252 10.7219 6.41634C10.5397 6.28678 10.3805 6.12758 10.2509 5.94538C10.1047 5.73979 10.0107 5.49538 9.8227 5.00656L8.66658 2.00065Z" stroke="white" stroke-width="1.5" stroke-linecap="round" stroke-linejoin="round"/>
</g>
<defs>
<clipPath id="clip0_678_357">
<rect width="16" height="16" fill="white"/>
</clipPath>
</defs>
</svg>
