<svg width="12" height="12" viewBox="0 0 12 12" fill="none" xmlns="http://www.w3.org/2000/svg">
<path d="M10.1 4.5043C10.8 5.3493 10.8 6.6493 10.1 7.4943C9.10001 8.6993 7.63501 9.4693 6.00001 9.4693C4.36501 9.4693 2.905 8.7043 1.9 7.4943C1.2 6.6493 1.2 5.3493 1.9 4.5043C2.9 3.2993 4.36501 2.5293 6.00001 2.5293C7.63501 2.5293 9.09501 3.2943 10.1 4.5043Z" fill="#808080" stroke="#575389" stroke-linecap="round" stroke-linejoin="round"/>
<path d="M10.1 4.5043C10.8 5.3493 10.8 6.6493 10.1 7.4943C9.10001 8.6993 7.63501 9.4693 6.00001 9.4693C4.36501 9.4693 2.905 8.7043 1.9 7.4943C1.2 6.6493 1.2 5.3493 1.9 4.5043C2.9 3.2993 4.36501 2.5293 6.00001 2.5293C7.63501 2.5293 9.09501 3.2943 10.1 4.5043Z" fill="#808080" stroke="#575389" stroke-linecap="round" stroke-linejoin="round"/>
<path d="M5.99995 7.53899C6.85047 7.53899 7.53995 6.8495 7.53995 5.99899C7.53995 5.14847 6.85047 4.45898 5.99995 4.45898C5.14944 4.45898 4.45996 5.14847 4.45996 5.99899C4.45996 6.8495 5.14944 7.53899 5.99995 7.53899Z" fill="#808080" stroke="#575389" stroke-linecap="round" stroke-linejoin="round"/>
</svg>
